# AST/ASF file generated using VICON BodyLanguage
# -----------------------------------------------
:version 1.10
:name VICON
:units
  mass 1.0
  length 0.45
  angle deg
:documentation
   .ast/.asf automatically generated from VICON data using
   VICON BodyBuilder and BodyLanguage model FoxedUp or BRILLIANT.MOD
:root
   order TX TY TZ RX RY RZ
   axis XYZ
   position 0 0 0  
   orientation 0 0 0 
:bonedata
  begin
     id 1 
     name lhipjoint
     direction 0.635376 -0.686425 0.353719 
     length 2.47244 
     axis 0 0 0  XYZ
  end
  begin
     id 2 
     name lfemur
     direction 0.34202 -0.939693 0  
     length 7.25268  
     axis 0 0 20  XYZ
    dof rx ry rz
    limits (-160.0 20.0)
           (-70.0 70.0)
           (-60.0 70.0)
  end
  begin
     id 3 
     name ltibia
     direction 0.34202 -0.939693 0   
     length 7.6767   
     axis 0 0 20   XYZ
    dof rx
    limits (-10.0 170.0)
  end
  begin
     id 4 
     name lfoot
     direction 0.0803374 -0.220725 0.972022   
     length 2.22945   
     axis -90 7.62852e-016 20   XYZ
    dof rx rz
    limits (-45.0 90.0)
           (-70.0 20.0)
  end
  begin
     id 5 
     name ltoes
     direction 1.53579e-011 -4.21994e-011 1   
     length 1.11848   
     axis -90 7.62852e-016 20   XYZ
    dof rx
    limits (-90.0 20.0)
  end
  begin
     id 6 
     name rhipjoint
     direction -0.664428 -0.664335 0.342336   
     length 2.55466  
     axis 0 0 0  XYZ 
  end
  begin
     id 7 
     name rfemur
     direction -0.34202 -0.939693 0   
     length 6.83172   
     axis 0 0 -20   XYZ
    dof rx ry rz
    limits (-160.0 20.0)
           (-70.0 70.0)
           (-70.0 60.0)
  end
  begin
     id 8 
     name rtibia
     direction -0.34202 -0.939693 0   
     length 7.62692   
     axis 0 0 -20   XYZ
    dof rx
    limits (-10.0 170.0)
 end
 begin
     id 9 
     name rfoot
     direction -0.0949276 -0.260811 0.960711   
     length 2.19684  
     axis -90 -7.62852e-016 -20   XYZ
    dof rx rz
    limits (-45.0 90.0)
           (-20.0 70.0)
  end
  begin
     id 10 
     name rtoes
     direction -1.53543e-011 -4.2183e-011 1   
     length 1.09848   
     axis -90 -7.62852e-016 -20   XYZ
    dof rx
    limits (-90.0 20.0)
  end
  begin
     id 11 
     name lowerback
     direction 0.0118782 0.999815 -0.0151555   
     length 2.15772   
     axis 0 0 0   XYZ
    dof rx ry rz
    limits (-20.0 45.0)
           (-30.0 30.0)
           (-30.0 30.0)
  end
  begin
     id 12 
     name upperback
     direction 0.00130825 0.999065 0.0432113   
     length 2.14863   
     axis 0 0 0   XYZ
    dof rx ry rz
    limits (-20.0 45.0)
           (-30.0 30.0)
           (-30.0 30.0)
  end
  begin
     id 13 
     name thorax
     direction -0.00347005 0.998773 0.0494011   
     length 2.14936   
     axis 0 0 0   XYZ
    dof rx ry rz
    limits (-20.0 45.0)
           (-30.0 30.0)
           (-30.0 30.0)
  end
  begin
     id 14 
     name lowerneck
     direction -0.0262159 0.99424 0.103921   
     length 1.69373   
     axis 0 0 0   XYZ
    dof rx ry rz
    limits (-20.0 45.0)
           (-30.0 30.0)
           (-30.0 30.0)
  end
  begin
     id 15 
     name upperneck
     direction 0.0353511 0.977394 -0.20845   
     length 1.70857   
     axis 0 0 0   XYZ
    dof rx ry rz
    limits (-20.0 45.0)
           (-30.0 30.0)
           (-30.0 30.0)
  end
  begin
     id 16
     name head
     direction 0.0139214 0.996594 -0.0812836  
     length 1.72777  
     axis 0 0 0   XYZ
    dof rx ry rz
    limits (-20.0 45.0)
           (-30.0 30.0)
           (-30.0 30.0)
  end
  begin
     id 17 
     name lclavicle
     direction 0.841247 0.537205 -0.0609508  
     length 3.55371  
     axis 0 0 0   XYZ
    dof ry rz
    limits (-20.0 10.0)
           (0.0 20.0)
  end
  begin
     id 18 
     name lhumerus
     direction 1 -4.48964e-011 1.60116e-018   
     length 4.91377   
     axis -180 -30 -90   XYZ
    dof rx ry rz
    limits (-60.0 90.0)
           (-90.0 90.0)
           (-90.0 90.0)
  end
  begin
     id 19
     name lradius
     direction 1 -4.48989e-011 -8.93847e-027   
     length 3.00291   
     axis -180 -30 -90   XYZ
    dof rx
    limits (-10.0 170.0)
  end
  begin
     id 20
     name lwrist
     direction 1 -4.48932e-011 -7.31504e-027   
     length 1.50145   
     axis 5.74121e-015 90 90   XYZ
    dof ry
    limits (-180.0 0.0)
 end
  begin
     id 21 
     name lhand
     direction 1 -4.48971e-011 -1.46301e-026   
     length 0.450922   
     axis 9.33524e-015 90 90   XYZ
    dof rx rz
    limits (-90.0 90.0)
           (-45.0 45.0)
  end
  begin
     id 22 
     name lfingers
     direction 1 -4.49039e-011 -2.92602e-026   
     length 0.363545   
     axis 1.86705e-014 90 90   XYZ
    dof rx
    limits (0.0 90.0)
  end
  begin
     id 23
     name lthumb
     direction 0.707107 -6.34941e-011 0.707107   
     length 0.52198   
     axis -90 45 2.85299e-015   XYZ
    dof rx rz
    limits (-45.0 45.0)
           (-45.0 45.0)
  end
  begin
     id 24 
     name rclavicle
     direction -0.825079 0.56158 -0.0622297   
     length 3.39909  
     axis 0 0 0   XYZ 
    dof ry rz
    limits (-10.0 20.0)
           (-20.0 0.0)
  end
  begin
     id 25 
     name rhumerus
     direction -1 -4.48965e-011 1.61691e-027  
     length 4.86725   
     axis -180 30 90   XYZ
    dof rx ry rz
    limits (-90.0 60.0)
           (-90.0 90.0)
           (-90.0 90.0)
  end
  begin
     id 26 
     name rradius
     direction -1 -4.48964e-011 -2.25776e-027   
     length 3.17144   
     axis -180 30 90   XYZ
    dof rx
    limits (-10.0 170.0)
  end
  begin
     id 27 
     name rwrist
     direction -1 -4.48961e-011 -7.31504e-027   
     length 1.58572   
     axis 5.74121e-015 -90 -90   XYZ
    dof ry
    limits (-180.0 0.0)
  end
  begin
     id 28
     name rhand
     direction -1 -4.49013e-011 -1.46301e-026   
     length 0.419368   
     axis 9.33524e-015 -90 -90   XYZ
    dof rx rz
    limits (-90.0 90.0)
           (-45.0 45.0)
  end
  begin
     id 29
     name rfingers
     direction -1 -4.489e-011 -2.92602e-026   
     length 0.338105   
     axis 1.86705e-014 -90 -90   XYZ
    dof rx
    limits (0.0 90.0)
  end
  begin
     id 30
     name rthumb
     direction -0.707107 -6.35022e-011 0.707107   
     length 0.485453   
     axis -90 -45 -2.85299e-015   XYZ
    dof rx rz
    limits (-45.0 45.0)
           (-45.0 45.0)
  end
:hierarchy
  begin
    root lhipjoint rhipjoint lowerback
    lhipjoint lfemur
    lfemur ltibia
    ltibia lfoot
    lfoot ltoes
    rhipjoint rfemur
    rfemur rtibia
    rtibia rfoot
    rfoot rtoes
    lowerback upperback
    upperback thorax
    thorax lowerneck lclavicle rclavicle
    lowerneck upperneck
    upperneck head
    lclavicle lhumerus
    lhumerus lradius
    lradius lwrist
    lwrist lhand lthumb
    lhand lfingers
    rclavicle rhumerus
    rhumerus rradius
    rradius rwrist
    rwrist rhand rthumb
    rhand rfingers
  end

#!OML:ASF H:\Swim 2\Project 1\Capture day 1\Session 1\male.ASF
:FULLY-SPECIFIED
:DEGREES
808
root 6.52264 15.6834 10.4106 123.649 -86.107 -3.46794
lowerback -23.9876 6.78404 4.06826
upperback -15.5482 7.4307 -3.27035
thorax -3.02699 2.85146 -4.21454
lowerneck -11.7316 -6.64687 -7.37659
upperneck -24.5893 -8.48808 8.8636
head -4.87435 -4.80803 4.13896
rclavicle 6.67916e-014 1.00585e-013
rhumerus -21.8593 27.0479 -54.0407
rradius 121.331
rwrist -33.2558
rhand -18.5804 11.5775
rfingers 7.12502
rthumb 7.71013 -18.2619
lclavicle 6.67916e-014 1.00585e-013
lhumerus 35.3544 -16.8236 17.9444
lradius 116.466
lwrist 103.546
lhand -39.4105 -17.5482
lfingers 7.12502
lthumb -12.3995 12.0641
rfemur -137.158 -43.8332 16.0601
rtibia 147.989
rfoot -0.354303 35.1753
rtoes -7.1424
lfemur -131.15 27.3959 -43.0601
ltibia 146.627
lfoot -12.8374 -15.9322
ltoes -11.7676
809
root 6.50124 15.6928 10.4401 124.754 -86.1367 -3.99721
lowerback -24.8628 6.85909 4.04065
upperback -15.7457 7.44125 -3.16752
thorax -2.86179 2.83043 -4.02525
lowerneck -11.6984 -6.59032 -7.69966
upperneck -24.4728 -8.35587 9.02209
head -4.82857 -4.71806 4.23912
rclavicle -1.03368e-013 -4.37326e-014
rhumerus -21.1619 28.2287 -55.424
rradius 122.26
rwrist -33.1571
rhand -18.2547 12.0218
rfingers 7.12502
rthumb 8.02448 -17.8059
lclavicle -1.03368e-013 -4.37326e-014
lhumerus 34.9891 -16.6417 19.2242
lradius 117.666
lwrist 104.453
lhand -39.0774 -17.8734
lfingers 7.12502
lthumb -12.0783 11.7581
rfemur -136.122 -44.5012 15.0697
rtibia 146.981
rfoot -1.31383 34.7449
rtoes -6.61171
lfemur -130.943 29.0102 -42.485
ltibia 146.119
lfoot -12.9952 -15.9688
ltoes -11.459
810
root 6.47818 15.7013 10.471 125.719 -86.1591 -4.42872
lowerback -25.7004 6.93867 4.03171
upperback -15.9372 7.45454 -3.06339
thorax -2.71093 2.80887 -3.84731
lowerneck -11.5964 -6.53312 -8.02419
upperneck -24.3662 -8.22702 9.1735
head -4.79689 -4.62908 4.3405
rclavicle -3.18055e-015 -1.15295e-014
rhumerus -20.3594 29.4445 -56.6957
rradius 123.138
rwrist -33.1086
rhand -17.9532 12.4176
rfingers 7.12502
rthumb 8.31552 -17.3987
lclavicle -3.18055e-015 -1.15295e-014
lhumerus 34.7468 -16.3654 20.518
lradius 118.802
lwrist 105.33
lhand -38.6686 -18.274
lfingers 7.12502
lthumb -11.684 11.3802
rfemur -134.88 -45.0525 14.0326
rtibia 145.904
rfoot -2.24507 34.1906
rtoes -6.05899
lfemur -130.539 30.5488 -41.7535
ltibia 145.478
lfoot -13.1636 -15.8748
ltoes -11.0893
811
root 6.45384 15.7088 10.5034 126.287 -86.1774 -4.5098
lowerback -26.4881 7.01749 4.05674
upperback -16.1231 7.46093 -2.96963
thorax -2.57755 2.7804 -3.70515
lowerneck -11.4517 -6.46751 -8.31173
upperneck -24.2551 -8.09389 9.30782
head -4.77352 -4.53962 4.43204
rclavicle 9.22361e-014 1.24837e-013
rhumerus -19.4336 30.6698 -57.8604
rradius 123.966
rwrist -33.1191
rhand -17.6565 12.7455
rfingers 7.12502
rthumb 8.60186 -17.0593
lclavicle 9.22361e-014 1.24837e-013
lhumerus 34.6516 -15.9978 21.8107
lradius 119.85
lwrist 106.093
lhand -38.1493 -18.7201
lfingers 7.12502
lthumb -11.1832 10.9618
rfemur -133.452 -45.5137 12.967
rtibia 144.764
rfoot -3.14746 33.5147
rtoes -5.47569
lfemur -129.916 31.9597 -40.8404
ltibia 144.7
lfoot -13.3218 -15.6658
ltoes -10.6438
812
root 6.42855 15.7153 10.5368 126.383 -86.1827 -4.16644
lowerback -27.2151 7.10279 4.12417
upperback -16.301 7.46951 -2.89023
thorax -2.46063 2.74977 -3.60612
lowerneck -11.3026 -6.40427 -8.56539
upperneck -24.1217 -7.96938 9.42382
head -4.74603 -4.45558 4.51121
rclavicle 3.49861e-014 1.03368e-014
rhumerus -18.3699 31.8683 -58.8941
rradius 124.749
rwrist -33.1884
rhand -17.3591 12.9769
rfingers 7.12502
rthumb 8.8888 -16.8158
lclavicle 3.49861e-014 1.03368e-014
lhumerus 34.7163 -15.5515 23.1
lradius 120.83
lwrist 106.653
lhand -37.5524 -19.2217
lfingers 7.12502
lthumb -10.6076 10.4906
rfemur -131.852 -45.8756 11.8875
rtibia 143.565
rfoot -4.01189 32.7053
rtoes -4.86916
lfemur -129.071 33.228 -39.733
ltibia 143.783
lfoot -13.4731 -15.364
ltoes -10.1415
